<svg xmlns="http://www.w3.org/2000/svg" viewBox="0 0 1024 1024" role="img" aria-label="Smart Kefu app icon">
  <defs>
    <linearGradient id="bg" x1="160" x2="864" y1="104" y2="920" gradientUnits="userSpaceOnUse">
      <stop offset="0" stop-color="#F9FBFF"/>
      <stop offset="0.48" stop-color="#EAF3FF"/>
      <stop offset="1" stop-color="#DDEAFF"/>
    </linearGradient>
    <linearGradient id="glass" x1="250" x2="774" y1="222" y2="820" gradientUnits="userSpaceOnUse">
      <stop offset="0" stop-color="#FFFFFF" stop-opacity="0.92"/>
      <stop offset="1" stop-color="#FFFFFF" stop-opacity="0.44"/>
    </linearGradient>
    <linearGradient id="blue" x1="256" x2="760" y1="232" y2="792" gradientUnits="userSpaceOnUse">
      <stop offset="0" stop-color="#0A84FF"/>
      <stop offset="1" stop-color="#0067D6"/>
    </linearGradient>
    <filter id="shadow" x="-20%" y="-20%" width="140%" height="150%">
      <feDropShadow dx="0" dy="24" stdDeviation="28" flood-color="#0A3E8A" flood-opacity="0.18"/>
      <feDropShadow dx="0" dy="2" stdDeviation="4" flood-color="#0A3E8A" flood-opacity="0.12"/>
    </filter>
  </defs>
  <rect width="1024" height="1024" rx="228" fill="url(#bg)"/>
  <path d="M160 200C270 128 410 104 540 138c96 25 180 84 240 164 54 72 82 160 84 250 3 126-46 248-136 338H160V200z" fill="#fff" opacity="0.28"/>
  <g filter="url(#shadow)">
    <rect x="214" y="218" width="596" height="590" rx="132" fill="url(#glass)" stroke="#fff" stroke-opacity="0.75" stroke-width="10"/>
    <rect x="270" y="298" width="484" height="342" rx="92" fill="url(#blue)" opacity="0.96"/>
    <path d="M366 436h292M366 520h194" fill="none" stroke="#fff" stroke-linecap="round" stroke-width="42"/>
    <circle cx="378" cy="684" r="28" fill="#34C759"/>
    <circle cx="512" cy="684" r="28" fill="#FFCC00"/>
    <circle cx="646" cy="684" r="28" fill="#FF3B30"/>
  </g>
  <path d="M314 230h396" fill="none" stroke="#fff" stroke-linecap="round" stroke-opacity="0.64" stroke-width="18"/>
  <path d="M284 820c124 50 326 58 456 0" fill="none" stroke="#0A84FF" stroke-linecap="round" stroke-opacity="0.18" stroke-width="24"/>
</svg>
