<svg xmlns="http://www.w3.org/2000/svg" width="420" height="260" viewBox="0 0 420 260" fill="none">
  <defs>
    <linearGradient id="line" x1="32" y1="20" x2="392" y2="228" gradientUnits="userSpaceOnUse">
      <stop stop-color="#0A84FF" stop-opacity=".16"/>
      <stop offset=".5" stop-color="#FFFFFF" stop-opacity=".54"/>
      <stop offset="1" stop-color="#34C759" stop-opacity=".12"/>
    </linearGradient>
    <radialGradient id="dot" cx="0" cy="0" r="1" gradientUnits="userSpaceOnUse" gradientTransform="translate(210 130) rotate(90) scale(128 196)">
      <stop stop-color="#0A84FF" stop-opacity=".08"/>
      <stop offset=".72" stop-color="#FFFFFF" stop-opacity=".04"/>
      <stop offset="1" stop-color="#FFFFFF" stop-opacity="0"/>
    </radialGradient>
    <filter id="blur" x="-30%" y="-40%" width="160%" height="180%" color-interpolation-filters="sRGB">
      <feGaussianBlur stdDeviation="1.6"/>
    </filter>
  </defs>
  <rect width="420" height="260" fill="url(#dot)"/>
  <path d="M-18 190C54 116 132 84 216 99C301 114 352 76 438 10" stroke="url(#line)" stroke-width="2" filter="url(#blur)"/>
  <path d="M-26 226C68 150 140 124 219 140C299 156 354 118 447 45" stroke="#0A84FF" stroke-opacity=".08" stroke-width="1.3"/>
  <path d="M56 28C118 70 184 88 254 72C316 58 361 72 401 112" stroke="#8E8E93" stroke-opacity=".08" stroke-width="1"/>
  <g opacity=".45">
    <circle cx="82" cy="74" r="2" fill="#0A84FF" fill-opacity=".22"/>
    <circle cx="148" cy="116" r="1.4" fill="#8E8E93" fill-opacity=".24"/>
    <circle cx="226" cy="88" r="2.4" fill="#34C759" fill-opacity=".2"/>
    <circle cx="324" cy="142" r="1.6" fill="#0A84FF" fill-opacity=".18"/>
    <circle cx="366" cy="72" r="1.2" fill="#8E8E93" fill-opacity=".22"/>
  </g>
  <g opacity=".16">
    <path d="M78 210h112M220 210h48M296 210h54" stroke="#1D1D1F" stroke-linecap="round"/>
    <path d="M88 224h46M160 224h88M274 224h62" stroke="#1D1D1F" stroke-linecap="round"/>
  </g>
</svg>
