<svg xmlns="http://www.w3.org/2000/svg" viewBox="0 0 128 96" role="img" aria-label="Empty state symbol">
  <defs>
    <linearGradient id="tray" x1="20" x2="108" y1="18" y2="82" gradientUnits="userSpaceOnUse">
      <stop offset="0" stop-color="#FFFFFF" stop-opacity="0.96"/>
      <stop offset="1" stop-color="#E8EDF5" stop-opacity="0.9"/>
    </linearGradient>
    <linearGradient id="blue" x1="42" x2="94" y1="30" y2="72" gradientUnits="userSpaceOnUse">
      <stop offset="0" stop-color="#0A84FF"/>
      <stop offset="1" stop-color="#0067D6"/>
    </linearGradient>
    <filter id="shadow" x="-20%" y="-30%" width="140%" height="160%">
      <feDropShadow dx="0" dy="10" stdDeviation="10" flood-color="#1D3557" flood-opacity="0.13"/>
      <feDropShadow dx="0" dy="1" stdDeviation="2" flood-color="#1D3557" flood-opacity="0.08"/>
    </filter>
  </defs>
  <path d="M26 28c0-7 6-13 13-13h50c6 0 11 4 13 10l4 15h5c6 0 11 5 10 12l-5 25c-1 7-7 12-14 12H26c-8 0-14-6-15-14L7 53c-1-7 4-13 11-13h4l4-12z" fill="url(#tray)" filter="url(#shadow)"/>
  <path d="M29 40h70l-4-13c-1-3-3-5-7-5H40c-4 0-7 2-8 6l-3 12z" fill="#F7F9FC"/>
  <path d="M18 47h92c3 0 5 3 5 6l-4 22c-1 4-4 7-9 7H27c-5 0-8-3-9-8l-4-21c-1-3 1-6 4-6z" fill="#FFFFFF" fill-opacity="0.72"/>
  <path d="M43 60h42" fill="none" stroke="url(#blue)" stroke-linecap="round" stroke-width="7"/>
  <path d="M49 71h30" fill="none" stroke="#8E8E93" stroke-linecap="round" stroke-opacity="0.48" stroke-width="5"/>
  <path d="M102 11l3 8 8 3-8 3-3 8-3-8-8-3 8-3 3-8zM22 9l2 6 6 2-6 2-2 6-2-6-6-2 6-2 2-6z" fill="#0A84FF" fill-opacity="0.42"/>
</svg>
